<svg xmlns="http://www.w3.org/2000/svg" xmlns:xlink="http://www.w3.org/1999/xlink" width="320" zoomAndPan="magnify" viewBox="0 0 240 98.999996" height="132" preserveAspectRatio="xMidYMid meet" version="1.0"><defs><g/></defs><g fill="#ffffff" fill-opacity="1"><g transform="translate(2.960637, 60.139933)"><g><path d="M 8.25 0 L 8.25 -26.921875 L 3.59375 -26.921875 L 3.59375 0 Z M 8.25 0 "/></g></g></g><g fill="#ffffff" fill-opacity="1"><g transform="translate(20.72171, 60.139933)"><g><path d="M 27 -0.046875 L 27 -26.921875 L 22.734375 -26.921875 L 22.734375 -9.625 C 22.734375 -9.03125 22.78125 -8.28125 22.8125 -7.703125 L 22.609375 -7.703125 C 22.375 -8.25 21.9375 -9.078125 21.515625 -9.671875 L 8.609375 -26.921875 L 3.59375 -26.921875 L 3.59375 0 L 7.859375 0 L 7.859375 -18.9375 C 7.859375 -19.421875 7.8125 -20.28125 7.78125 -20.765625 L 8.015625 -20.765625 C 8.203125 -20.203125 8.6875 -19.375 9.125 -18.828125 L 23.28125 0.4375 Z M 27 -0.046875 "/></g></g></g><g fill="#ffffff" fill-opacity="1"><g transform="translate(57.229134, 60.139933)"><g><path d="M 33.75 -0.125 L 31.84375 -26.921875 L 27.109375 -26.921875 L 18.59375 -7.5 C 18.359375 -6.953125 18.109375 -6.078125 18.03125 -5.484375 L 17.71875 -5.484375 C 17.6875 -6.078125 17.484375 -6.953125 17.25 -7.5 L 9.46875 -26.921875 L 4.65625 -26.921875 L 2.5625 0 L 6.625 0 L 8.015625 -17.53125 C 8.046875 -17.953125 8.046875 -18.984375 8.046875 -19.375 L 8.28125 -19.375 C 8.375 -18.625 8.5625 -17.796875 8.796875 -17.171875 L 15.546875 0 L 19.6875 0 L 27.3125 -17.203125 C 27.546875 -17.796875 27.703125 -18.625 27.828125 -19.375 L 28.0625 -19.375 C 28.0625 -18.90625 28.0625 -17.953125 28.109375 -17.53125 L 29.203125 0.125 Z M 33.75 -0.125 "/></g></g></g><g fill="#ffffff" fill-opacity="1"><g transform="translate(99.45912, 60.139933)"><g><path d="M 29.640625 -13.96875 C 29.640625 -22.375 23.28125 -27.390625 16.0625 -27.390625 C 8.28125 -27.390625 1.78125 -22.21875 1.78125 -12.90625 C 1.78125 -4.453125 8.40625 0.390625 15.203125 0.390625 C 22.859375 0.390625 29.640625 -4.625 29.640625 -13.96875 Z M 24.59375 -13.578125 C 24.59375 -7.625 20.875 -3.625 15.59375 -3.625 C 10.578125 -3.625 6.828125 -6.90625 6.828125 -13.453125 C 6.828125 -20.203125 11.125 -23.359375 15.828125 -23.359375 C 20.484375 -23.359375 24.59375 -20.328125 24.59375 -13.578125 Z M 24.59375 -13.578125 "/></g></g></g><g fill="#ffffff" fill-opacity="1"><g transform="translate(136.795327, 60.139933)"><g><path d="M 22.375 -26.921875 L 0.546875 -26.921875 L 0.796875 -22.8125 L 9.125 -22.8125 L 9.125 0 L 13.8125 0 L 13.8125 -22.8125 L 22.140625 -22.8125 Z M 22.375 -26.921875 "/></g></g></g><g fill="#ffffff" fill-opacity="1"><g transform="translate(165.646352, 60.139933)"><g><path d="M 8.25 0 L 8.25 -26.921875 L 3.59375 -26.921875 L 3.59375 0 Z M 8.25 0 "/></g></g></g><g fill="#ffffff" fill-opacity="1"><g transform="translate(183.407427, 60.139933)"><g><path d="M 24.828125 -1.65625 L 23.765625 -6.078125 C 21.90625 -4.9375 18.9375 -3.875 16.265625 -3.875 C 11.484375 -3.875 6.828125 -6.515625 6.828125 -13.03125 C 6.828125 -20.484375 11.171875 -23.125 15.90625 -23.125 C 18.546875 -23.125 21.4375 -22.34375 23.25 -21.1875 L 24.59375 -25.53125 C 22.265625 -26.796875 18.78125 -27.390625 15.75 -27.390625 C 8.953125 -27.390625 1.78125 -22.859375 1.78125 -12.984375 C 1.78125 -4.421875 8.375 0.390625 15.703125 0.390625 C 19.21875 0.390625 22.65625 -0.46875 24.828125 -1.65625 Z M 24.828125 -1.65625 "/></g></g></g><g fill="#ffffff" fill-opacity="1"><g transform="translate(215.968251, 60.139933)"><g><path d="M 19.1875 -7.421875 C 19.1875 -15.359375 6.953125 -15.828125 6.953125 -20.359375 C 6.953125 -22.453125 8.765625 -23.40625 11.5625 -23.40625 C 13.0625 -23.40625 15.546875 -23.015625 17.328125 -22.34375 L 18.109375 -26.5625 C 16.265625 -27.078125 13.578125 -27.390625 11.328125 -27.390625 C 6.203125 -27.390625 2.296875 -24.546875 2.296875 -19.859375 C 2.296875 -12.28125 14.328125 -12.15625 14.328125 -6.984375 C 14.328125 -4.703125 12.28125 -3.625 9.828125 -3.625 C 7.703125 -3.625 4.890625 -4.34375 2.953125 -5.6875 L 1.734375 -1.578125 C 3.515625 -0.390625 6.78125 0.390625 9.875 0.390625 C 15.28125 0.390625 19.1875 -2.640625 19.1875 -7.421875 Z M 19.1875 -7.421875 "/></g></g></g></svg>